<svg version="1.1" id="Layer_1" xmlns="http://www.w3.org/2000/svg" xmlns:xlink="http://www.w3.org/1999/xlink" x="0px" y="0px"
	 width="100%" viewBox="0 0 486 240" enable-background="new 0 0 486 240" xml:space="preserve">
<path fill="#FFFFFF" opacity="1.000000" stroke="none" 
	d="
M214.000000,241.000000 
	C143.096558,241.000000 72.193130,241.000000 1.000000,241.000000 
	C1.000000,204.979630 1.000000,168.958466 1.468237,132.468658 
	C7.538520,132.000000 13.140567,132.000000 19.082222,132.000000 
	C19.082222,116.023323 19.082222,100.595100 19.082222,85.181000 
	C21.180788,85.488319 23.016319,85.494888 24.666813,86.050819 
	C28.691462,87.406433 33.863937,85.596642 36.091080,91.737160 
	C40.580482,104.114983 45.819950,116.221718 50.812748,128.414581 
	C51.331783,129.682129 52.228352,131.759247 53.025673,131.795624 
	C59.219833,132.078033 65.432640,131.951569 72.442253,131.951569 
	C65.622681,115.339966 59.303829,99.948074 52.873207,84.283913 
	C56.202473,82.745110 59.397892,81.277695 62.585045,79.792549 
	C66.310089,78.056747 68.197495,75.594887 68.117760,71.013542 
	C67.822113,54.027157 67.541801,37.014465 68.210342,20.049274 
	C68.505577,12.557253 65.325905,8.923436 59.133106,6.630791 
	C56.432110,5.630847 53.679066,4.745809 50.901356,3.984915 
	C46.957615,2.904610 42.969280,1.987082 39.000000,1.000000 
	C187.000000,1.000000 335.000000,0.993859 482.999939,1.102891 
	C484.252533,1.103814 487.314819,-0.962960 486.531342,3.500000 
	C468.129242,4.000000 450.195801,4.000000 432.288666,4.000000 
	C432.288666,46.955914 432.288666,89.355415 432.288666,132.000000 
	C450.717499,132.000000 468.858734,132.000000 487.000000,132.000000 
	C487.000000,168.276077 487.000000,204.552155 487.000000,241.000000 
	C430.979218,241.000000 374.958282,241.000000 318.470947,240.637878 
	C318.301788,239.717087 318.456604,238.955338 318.918457,238.631393 
	C323.185944,235.638306 322.005371,233.203064 318.720703,230.086105 
	C310.305634,222.100723 302.202118,213.787079 293.965454,205.596161 
	C302.684662,196.861618 311.078186,188.290970 319.680023,179.934738 
	C322.280121,177.408875 322.426819,175.839188 319.799042,173.093185 
	C316.941437,170.107040 315.320984,171.026230 312.964905,173.443802 
	C305.524689,181.078232 297.981201,188.615692 290.311401,196.018356 
	C289.321838,196.973434 286.608643,197.761948 285.958282,197.190002 
	C281.270416,193.067093 276.908539,188.573471 271.614288,183.384903 
	C274.684540,181.047165 277.056244,179.241302 278.795441,177.917023 
	C276.604034,175.221176 274.775146,172.971313 272.249786,169.864639 
	C270.086853,172.690918 268.274353,175.059235 266.512146,177.361877 
	C257.867798,170.482880 257.867798,170.482880 251.269882,177.354706 
	C253.869492,179.587540 256.488525,181.837067 258.358215,183.442963 
	C253.303040,188.576691 248.339310,193.617569 243.066345,198.972473 
	C240.958069,196.740067 238.694244,194.056870 236.127441,191.704239 
	C233.477890,189.275742 230.533661,187.168762 227.128342,184.450089 
	C231.132614,180.994507 233.625214,178.843460 236.445221,176.409851 
	C233.854752,174.394379 231.332367,171.026642 229.579086,171.388229 
	C226.758926,171.969818 224.446701,175.014328 220.773300,177.927505 
	C219.016495,175.453461 217.206116,172.903976 215.739853,170.839111 
	C213.103485,173.341904 211.094589,175.249023 208.927307,177.306503 
	C211.013290,179.487656 213.146652,181.718353 215.404510,184.079208 
	C211.223312,188.258194 207.222488,192.018509 203.516556,196.049911 
	C201.276062,198.487152 199.754593,198.396393 197.471359,196.042542 
	C189.933517,188.271591 182.084351,180.801468 174.589584,172.990509 
	C171.988129,170.279312 170.474762,170.946793 168.142258,173.222549 
	C165.692154,175.613068 165.481873,177.172180 168.073257,179.670273 
	C176.826828,188.108673 185.359390,196.776337 194.043167,205.422806 
	C185.468491,214.003952 177.048340,222.525543 168.503067,230.919785 
	C166.166306,233.215225 165.032791,234.779007 168.028839,237.754654 
	C171.061386,240.766571 172.682587,240.015366 175.230698,237.374176 
	C183.505997,228.796524 192.004517,220.434204 200.480789,211.925064 
	C203.092651,214.556946 205.432373,216.928253 207.786957,219.284714 
	C215.467499,226.971436 215.469589,226.969360 208.945404,235.113571 
	C210.616211,237.059357 212.308105,239.029678 214.000000,241.000000 
M323.000000,125.423241 
	C323.000000,127.526604 323.000000,129.629974 323.000000,131.715210 
	C328.952026,131.715210 334.352325,131.715210 340.152649,131.715210 
	C340.152649,104.121483 340.152649,76.810036 340.152649,49.498581 
	C340.452423,49.432137 340.752197,49.365688 341.052002,49.299244 
	C352.241547,76.857063 363.431091,104.414886 374.538849,131.771255 
	C380.093750,131.771255 385.368866,131.771255 390.779785,131.771255 
	C390.779785,89.155602 390.779785,46.768909 390.779785,4.231864 
	C385.490936,4.231864 380.424194,4.231864 374.779510,4.231864 
	C374.779510,30.259544 374.779510,56.060719 374.779510,81.861893 
	C373.386322,81.349937 372.780579,80.680130 372.462341,79.893951 
	C362.632599,55.612873 352.852905,31.311476 342.960480,7.056030 
	C342.465424,5.842210 341.073273,4.193501 340.026550,4.139134 
	C334.443542,3.849148 328.837463,4.002524 323.000000,4.002524 
	C323.000000,44.527679 323.000000,84.482521 323.000000,125.423241 
M282.000000,48.500000 
	C282.000000,38.172775 281.796906,27.839598 282.099243,17.521233 
	C282.221344,13.353945 280.397980,11.177744 277.034912,9.489672 
	C270.667236,6.293426 264.207703,3.943350 257.003632,2.734339 
	C243.646927,0.492787 231.508743,3.272041 219.803085,9.117579 
	C216.667282,10.683532 214.802536,13.155180 214.841232,17.560015 
	C215.132462,50.704567 215.000000,83.852837 215.000000,116.999947 
	C215.000015,124.427773 217.139557,127.476540 224.126236,129.977463 
	C225.185455,130.356613 226.272675,130.658295 227.328690,131.045532 
	C244.986496,137.520523 261.872284,136.191696 278.161926,126.512596 
	C281.207001,124.703239 282.073181,122.749626 282.057831,119.458458 
	C281.949097,96.139389 282.000000,72.819572 282.000000,48.500000 
M174.000000,96.500000 
	C174.000000,65.756981 174.000000,35.013958 174.000000,4.284151 
	C167.714630,4.284151 161.982315,4.284151 155.844223,4.284151 
	C155.844223,21.960239 155.844223,39.356148 155.844223,56.710663 
	C145.366501,56.710663 135.302811,56.710663 124.834007,56.710663 
	C124.834007,39.029087 124.834007,21.633223 124.834007,4.298224 
	C118.686081,4.298224 112.953156,4.298224 107.275551,4.298224 
	C107.275551,46.974438 107.275551,89.351852 107.275551,131.714813 
	C113.287430,131.714813 119.019760,131.714813 125.156647,131.714813 
	C125.156647,112.705147 125.156647,93.976997 125.156647,75.289200 
	C135.633087,75.289200 145.696854,75.289200 156.164551,75.289200 
	C156.164551,94.303116 156.164551,113.031372 156.164551,131.703079 
	C162.311218,131.703079 168.044052,131.703079 174.000000,131.703079 
	C174.000000,120.105064 174.000000,108.802536 174.000000,96.500000 
z"/>
<path fill="#231F20" opacity="1.000000" stroke="none" 
	d="
M38.550018,1.000000 
	C42.969280,1.987082 46.957615,2.904610 50.901356,3.984915 
	C53.679066,4.745809 56.432110,5.630847 59.133106,6.630791 
	C65.325905,8.923436 68.505577,12.557253 68.210342,20.049274 
	C67.541801,37.014465 67.822113,54.027157 68.117760,71.013542 
	C68.197495,75.594887 66.310089,78.056747 62.585045,79.792549 
	C59.397892,81.277695 56.202473,82.745110 52.873207,84.283913 
	C59.303829,99.948074 65.622681,115.339966 72.442253,131.951569 
	C65.432640,131.951569 59.219833,132.078033 53.025673,131.795624 
	C52.228352,131.759247 51.331783,129.682129 50.812748,128.414581 
	C45.819950,116.221718 40.580482,104.114983 36.091080,91.737160 
	C33.863937,85.596642 28.691462,87.406433 24.666813,86.050819 
	C23.016319,85.494888 21.180788,85.488319 19.082222,85.181000 
	C19.082222,100.595100 19.082222,116.023323 19.082222,132.000000 
	C13.140567,132.000000 7.538520,132.000000 1.468237,132.000000 
	C1.000000,91.645775 1.000000,51.291542 1.395995,10.468647 
	C5.547395,8.340713 9.187715,6.305475 13.085782,5.112263 
	C18.624475,3.416850 24.352736,2.340727 30.000000,1.000000 
	C32.700012,1.000000 35.400028,1.000000 38.550018,1.000000 
M49.728210,64.777283 
	C49.818432,51.662251 49.961994,38.546955 49.897690,25.432678 
	C49.892540,24.382912 48.670399,22.776182 47.646950,22.382854 
	C38.988045,19.055111 30.184431,19.164221 21.455286,22.099253 
	C20.419153,22.447636 19.118259,24.055466 19.106245,25.093000 
	C18.948904,38.679432 19.001665,52.268299 19.001665,65.642578 
	C29.374962,68.851486 39.258675,69.284073 49.728210,64.777283 
z"/>
<path fill="#231F20" opacity="1.000000" stroke="none" 
	d="
M214.333328,241.000000 
	C212.308105,239.029678 210.616211,237.059357 208.945404,235.113571 
	C215.469589,226.969360 215.467499,226.971436 207.786957,219.284714 
	C205.432373,216.928253 203.092651,214.556946 200.480789,211.925064 
	C192.004517,220.434204 183.505997,228.796524 175.230698,237.374176 
	C172.682587,240.015366 171.061386,240.766571 168.028839,237.754654 
	C165.032791,234.779007 166.166306,233.215225 168.503067,230.919785 
	C177.048340,222.525543 185.468491,214.003952 194.043167,205.422806 
	C185.359390,196.776337 176.826828,188.108673 168.073257,179.670273 
	C165.481873,177.172180 165.692154,175.613068 168.142258,173.222549 
	C170.474762,170.946793 171.988129,170.279312 174.589584,172.990509 
	C182.084351,180.801468 189.933517,188.271591 197.471359,196.042542 
	C199.754593,198.396393 201.276062,198.487152 203.516556,196.049911 
	C207.222488,192.018509 211.223312,188.258194 215.404510,184.079208 
	C213.146652,181.718353 211.013290,179.487656 208.927307,177.306503 
	C211.094589,175.249023 213.103485,173.341904 215.739853,170.839111 
	C217.206116,172.903976 219.016495,175.453461 220.773300,177.927505 
	C224.446701,175.014328 226.758926,171.969818 229.579086,171.388229 
	C231.332367,171.026642 233.854752,174.394379 236.445221,176.409851 
	C233.625214,178.843460 231.132614,180.994507 227.128342,184.450089 
	C230.533661,187.168762 233.477890,189.275742 236.127441,191.704239 
	C238.694244,194.056870 240.958069,196.740067 243.066345,198.972473 
	C248.339310,193.617569 253.303040,188.576691 258.358215,183.442963 
	C256.488525,181.837067 253.869492,179.587540 251.269882,177.354706 
	C257.867798,170.482880 257.867798,170.482880 266.512146,177.361877 
	C268.274353,175.059235 270.086853,172.690918 272.249786,169.864639 
	C274.775146,172.971313 276.604034,175.221176 278.795441,177.917023 
	C277.056244,179.241302 274.684540,181.047165 271.614288,183.384903 
	C276.908539,188.573471 281.270416,193.067093 285.958282,197.190002 
	C286.608643,197.761948 289.321838,196.973434 290.311401,196.018356 
	C297.981201,188.615692 305.524689,181.078232 312.964905,173.443802 
	C315.320984,171.026230 316.941437,170.107040 319.799042,173.093185 
	C322.426819,175.839188 322.280121,177.408875 319.680023,179.934738 
	C311.078186,188.290970 302.684662,196.861618 293.965454,205.596161 
	C302.202118,213.787079 310.305634,222.100723 318.720703,230.086105 
	C322.005371,233.203064 323.185944,235.638306 318.918457,238.631393 
	C318.456604,238.955338 318.301788,239.717087 318.002258,240.637878 
	C317.555542,241.000000 317.111115,241.000000 316.258789,240.670090 
	C306.444855,230.872772 297.038757,221.405365 288.181854,212.490723 
	C282.768951,217.890015 277.681396,222.964813 271.994019,228.637894 
	C274.142029,230.585983 276.571411,232.789291 279.092560,235.075806 
	C277.372589,237.076645 275.686279,239.038315 274.000000,241.000000 
	C273.250000,241.000000 272.500000,241.000000 271.372986,240.645844 
	C269.241333,238.161575 267.486755,236.031464 265.718475,233.884766 
	C257.392517,241.870926 256.612030,241.899231 251.791245,234.145065 
	C254.179672,232.063141 256.662842,229.898621 258.323273,228.451279 
	C253.291214,223.145859 248.521149,218.116699 243.915222,213.260559 
	C239.152771,218.130157 234.343246,223.047897 228.912827,228.600525 
	C231.177216,230.477341 233.719894,232.584808 236.354126,234.768173 
	C234.381256,237.064438 232.690613,239.032211 231.000000,241.000000 
	C230.555557,241.000000 230.111099,241.000000 229.256134,240.666656 
	C222.031921,233.517090 222.031921,233.517090 216.000000,241.000000 
	C215.555557,241.000000 215.111099,241.000000 214.333328,241.000000 
M256.912140,199.603882 
	C254.646194,201.537186 252.380249,203.470490 250.482605,205.089569 
	C256.257812,210.788940 261.137665,215.604736 265.992828,220.396133 
	C270.765472,215.640228 275.814209,210.609177 279.998749,206.439316 
	C275.056671,201.425873 270.131958,196.430054 264.933289,191.156296 
	C262.659271,193.544464 260.032318,196.303314 256.912140,199.603882 
M212.503830,211.002609 
	C215.768341,214.314880 219.032867,217.627167 221.396637,220.025513 
	C226.535767,215.019241 231.561310,210.123611 236.178757,205.625534 
	C231.616287,201.062897 226.712341,196.158768 222.010117,191.456390 
	C217.324356,196.140137 212.426712,201.035660 207.364319,206.095871 
	C208.632660,207.301407 210.318207,208.903473 212.503830,211.002609 
z"/>
<path fill="#231F20" opacity="1.000000" stroke="none" 
	d="
M487.000000,131.532059 
	C468.858734,132.000000 450.717499,132.000000 432.288666,132.000000 
	C432.288666,89.355415 432.288666,46.955914 432.288666,4.000000 
	C450.195801,4.000000 468.129242,4.000000 486.531342,4.000000 
	C487.000000,9.354929 487.000000,14.709858 486.531342,20.532394 
	C474.135162,21.000000 462.207642,21.000000 450.271271,21.000000 
	C450.271271,33.266197 450.271271,44.994438 450.271271,57.138588 
	C457.273468,57.138588 464.012451,57.138588 470.711395,57.138588 
	C470.711395,62.961651 470.711395,68.360550 470.711395,74.173347 
	C463.691010,74.173347 456.953857,74.173347 450.298706,74.173347 
	C450.298706,87.656715 450.298706,100.717979 450.298706,114.000000 
	C462.730804,114.000000 474.865417,114.000000 487.000000,114.000000 
	C487.000000,119.688042 487.000000,125.376076 487.000000,131.532059 
z"/>
<path fill="#FFFFFF" opacity="1.000000" stroke="none" 
	d="
M487.000000,113.531342 
	C474.865417,114.000000 462.730804,114.000000 450.298706,114.000000 
	C450.298706,100.717979 450.298706,87.656715 450.298706,74.173347 
	C456.953857,74.173347 463.691010,74.173347 470.711395,74.173347 
	C470.711395,68.360550 470.711395,62.961651 470.711395,57.138588 
	C464.012451,57.138588 457.273468,57.138588 450.271271,57.138588 
	C450.271271,44.994438 450.271271,33.266197 450.271271,21.000000 
	C462.207642,21.000000 474.135162,21.000000 486.531342,21.000000 
	C487.000000,51.687561 487.000000,82.375122 487.000000,113.531342 
z"/>
<path fill="#FFFFFF" opacity="1.000000" stroke="none" 
	d="
M274.468658,241.000000 
	C275.686279,239.038315 277.372589,237.076645 279.092560,235.075806 
	C276.571411,232.789291 274.142029,230.585983 271.994019,228.637894 
	C277.681396,222.964813 282.768951,217.890015 288.181854,212.490723 
	C297.038757,221.405365 306.444855,230.872772 315.925476,240.670090 
	C302.312439,241.000000 288.624878,241.000000 274.468658,241.000000 
z"/>
<path fill="#FFFFFF" opacity="1.000000" stroke="none" 
	d="
M231.468658,241.000000 
	C232.690613,239.032211 234.381256,237.064438 236.354126,234.768173 
	C233.719894,232.584808 231.177216,230.477341 228.912827,228.600525 
	C234.343246,223.047897 239.152771,218.130157 243.915222,213.260559 
	C248.521149,218.116699 253.291214,223.145859 258.323273,228.451279 
	C256.662842,229.898621 254.179672,232.063141 251.791245,234.145065 
	C256.612030,241.899231 257.392517,241.870926 265.718475,233.884766 
	C267.486755,236.031464 269.241333,238.161575 270.997986,240.645844 
	C257.979095,241.000000 244.958206,241.000000 231.468658,241.000000 
z"/>
<path fill="#FFFFFF" opacity="1.000000" stroke="none" 
	d="
M29.531342,1.000000 
	C24.352736,2.340727 18.624475,3.416850 13.085782,5.112263 
	C9.187715,6.305475 5.547395,8.340713 1.395995,9.999989 
	C1.000000,7.034985 1.000000,4.069971 1.000000,1.000000 
	C10.354024,1.000000 19.708353,1.000000 29.531342,1.000000 
z"/>
<path fill="#FFFFFF" opacity="1.000000" stroke="none" 
	d="
M216.463181,241.000000 
	C222.031921,233.517090 222.031921,233.517090 228.922791,240.666656 
	C224.975449,241.000000 220.950912,241.000000 216.463181,241.000000 
z"/>
<path fill="#231F20" opacity="1.000000" stroke="none" 
	d="
M323.000000,124.930298 
	C323.000000,84.482521 323.000000,44.527679 323.000000,4.002524 
	C328.837463,4.002524 334.443542,3.849148 340.026550,4.139134 
	C341.073273,4.193501 342.465424,5.842210 342.960480,7.056030 
	C352.852905,31.311476 362.632599,55.612873 372.462341,79.893951 
	C372.780579,80.680130 373.386322,81.349937 374.779510,81.861893 
	C374.779510,56.060719 374.779510,30.259544 374.779510,4.231864 
	C380.424194,4.231864 385.490936,4.231864 390.779785,4.231864 
	C390.779785,46.768909 390.779785,89.155602 390.779785,131.771255 
	C385.368866,131.771255 380.093750,131.771255 374.538849,131.771255 
	C363.431091,104.414886 352.241547,76.857063 341.052002,49.299244 
	C340.752197,49.365688 340.452423,49.432137 340.152649,49.498581 
	C340.152649,76.810036 340.152649,104.121483 340.152649,131.715210 
	C334.352325,131.715210 328.952026,131.715210 323.000000,131.715210 
	C323.000000,129.629974 323.000000,127.526604 323.000000,124.930298 
z"/>
<path fill="#231F20" opacity="1.000000" stroke="none" 
	d="
M282.000000,49.000000 
	C282.000000,72.819572 281.949097,96.139389 282.057831,119.458458 
	C282.073181,122.749626 281.207001,124.703239 278.161926,126.512596 
	C261.872284,136.191696 244.986496,137.520523 227.328690,131.045532 
	C226.272675,130.658295 225.185455,130.356613 224.126236,129.977463 
	C217.139557,127.476540 215.000015,124.427773 215.000000,116.999947 
	C215.000000,83.852837 215.132462,50.704567 214.841232,17.560015 
	C214.802536,13.155180 216.667282,10.683532 219.803085,9.117579 
	C231.508743,3.272041 243.646927,0.492787 257.003632,2.734339 
	C264.207703,3.943350 270.667236,6.293426 277.034912,9.489672 
	C280.397980,11.177744 282.221344,13.353945 282.099243,17.521233 
	C281.796906,27.839598 282.000000,38.172775 282.000000,49.000000 
M246.123444,116.002419 
	C251.140213,115.465439 256.197266,115.145798 261.143616,114.229012 
	C262.289490,114.016624 263.871887,111.770065 263.879333,110.451752 
	C264.037598,82.472427 264.035889,54.491787 263.872192,26.512524 
	C263.865234,25.326582 262.232574,23.663752 260.959290,23.053761 
	C254.621552,20.017559 247.727280,19.502247 241.115662,21.169382 
	C231.827026,23.511534 232.981644,22.365654 232.992630,30.859192 
	C233.016525,49.346088 233.000000,67.833038 233.000000,86.319969 
	C233.000000,95.458656 233.000000,104.597343 233.000000,114.087776 
	C237.275146,114.755455 241.260223,115.377831 246.123444,116.002419 
z"/>
<path fill="#231F20" opacity="1.000000" stroke="none" 
	d="
M174.000000,97.000000 
	C174.000000,108.802536 174.000000,120.105064 174.000000,131.703079 
	C168.044052,131.703079 162.311218,131.703079 156.164551,131.703079 
	C156.164551,113.031372 156.164551,94.303116 156.164551,75.289200 
	C145.696854,75.289200 135.633087,75.289200 125.156647,75.289200 
	C125.156647,93.976997 125.156647,112.705147 125.156647,131.714813 
	C119.019760,131.714813 113.287430,131.714813 107.275551,131.714813 
	C107.275551,89.351852 107.275551,46.974438 107.275551,4.298224 
	C112.953156,4.298224 118.686081,4.298224 124.834007,4.298224 
	C124.834007,21.633223 124.834007,39.029087 124.834007,56.710663 
	C135.302811,56.710663 145.366501,56.710663 155.844223,56.710663 
	C155.844223,39.356148 155.844223,21.960239 155.844223,4.284151 
	C161.982315,4.284151 167.714630,4.284151 174.000000,4.284151 
	C174.000000,35.013958 174.000000,65.756981 174.000000,97.000000 
z"/>
<path fill="#FFFFFF" opacity="1.000000" stroke="none" 
	d="
M49.400269,65.075516 
	C39.258675,69.284073 29.374962,68.851486 19.001665,65.642578 
	C19.001665,52.268299 18.948904,38.679432 19.106245,25.093000 
	C19.118259,24.055466 20.419153,22.447636 21.455286,22.099253 
	C30.184431,19.164221 38.988045,19.055111 47.646950,22.382854 
	C48.670399,22.776182 49.892540,24.382912 49.897690,25.432678 
	C49.961994,38.546955 49.818432,51.662251 49.400269,65.075516 
z"/>
<path fill="#FFFFFF" opacity="1.000000" stroke="none" 
	d="
M257.158752,199.333008 
	C260.032318,196.303314 262.659271,193.544464 264.933289,191.156296 
	C270.131958,196.430054 275.056671,201.425873 279.998749,206.439316 
	C275.814209,210.609177 270.765472,215.640228 265.992828,220.396133 
	C261.137665,215.604736 256.257812,210.788940 250.482605,205.089569 
	C252.380249,203.470490 254.646194,201.537186 257.158752,199.333008 
z"/>
<path fill="#FFFFFF" opacity="1.000000" stroke="none" 
	d="
M212.253784,210.754089 
	C210.318207,208.903473 208.632660,207.301407 207.364319,206.095871 
	C212.426712,201.035660 217.324356,196.140137 222.010117,191.456390 
	C226.712341,196.158768 231.616287,201.062897 236.178757,205.625534 
	C231.561310,210.123611 226.535767,215.019241 221.396637,220.025513 
	C219.032867,217.627167 215.768341,214.314880 212.253784,210.754089 
z"/>
<path fill="#FFFFFF" opacity="1.000000" stroke="none" 
	d="
M245.684372,116.001312 
	C241.260223,115.377831 237.275146,114.755455 233.000000,114.087776 
	C233.000000,104.597343 233.000000,95.458656 233.000000,86.319969 
	C233.000000,67.833038 233.016525,49.346088 232.992630,30.859192 
	C232.981644,22.365654 231.827026,23.511534 241.115662,21.169382 
	C247.727280,19.502247 254.621552,20.017559 260.959290,23.053761 
	C262.232574,23.663752 263.865234,25.326582 263.872192,26.512524 
	C264.035889,54.491787 264.037598,82.472427 263.879333,110.451752 
	C263.871887,111.770065 262.289490,114.016624 261.143616,114.229012 
	C256.197266,115.145798 251.140213,115.465439 245.684372,116.001312 
z"/>
</svg>